<svg width="484" height="132" viewBox="0 0 484 132" fill="none" xmlns="http://www.w3.org/2000/svg">
<rect width="484" height="132" fill="white"/>
<g clip-path="url(#clip0_2108_298)">
<path d="M58 65.1118C58.6874 64.7077 59.1706 64.0778 59.7257 63.5299C61.6921 61.6057 63.6392 59.6624 65.5672 57.6999C65.9181 57.3432 66.1137 57.3389 66.4689 57.6999C68.9261 60.182 71.3996 62.6479 73.8895 65.0975C74.2936 65.4929 74.2303 65.6914 73.8665 66.0509C71.3939 68.4841 68.9386 70.9342 66.5005 73.401C66.0878 73.8209 65.8707 73.7634 65.4939 73.3808C63.2059 71.0669 60.892 68.7789 58.5911 66.478C58.407 66.2954 58.1999 66.1386 58.0029 65.9689L58 65.1118Z" fill="#F2B92F"/>
<path d="M170.351 65.2269C171.374 65.6647 172.366 66.1721 173.32 66.7456C176.752 68.8811 177.829 72.0895 177.522 75.9163C177.124 80.8719 173.812 83.6719 169.16 84.8914C167.186 85.3913 165.156 85.6354 163.12 85.6176C157.107 85.6176 151.093 85.6104 145.08 85.6334C144.497 85.6334 144.377 85.458 144.379 84.9144C144.393 72.3858 144.393 59.8571 144.379 47.3285C144.379 46.782 144.494 46.6022 145.08 46.6094C151.046 46.6353 157.017 46.6008 162.975 46.6425C165.657 46.6612 168.251 47.1444 170.634 48.4919C177.022 52.1015 176.905 61.4347 170.861 64.9062C170.716 64.9781 170.581 65.0774 170.351 65.2269ZM158.824 78.0705V78.0317C160.619 78.0317 162.42 78.0489 164.21 78.0245C165.072 77.9931 165.921 77.7979 166.711 77.4493C168.344 76.7762 169.078 75.5136 169.082 73.7965C169.087 72.0794 168.169 70.7593 166.587 70.128C165.557 69.733 164.462 69.5377 163.359 69.5527C160.032 69.5441 156.705 69.5527 153.377 69.534C152.871 69.534 152.733 69.6778 152.737 70.1811C152.76 72.5943 152.766 75.0074 152.737 77.4205C152.737 77.9828 152.928 78.0949 153.442 78.0878C155.233 78.0547 157.034 78.0705 158.824 78.0705ZM158.229 54.1709C156.397 54.1709 154.89 54.1896 153.383 54.1608C152.881 54.1508 152.733 54.3046 152.737 54.808C152.762 57.1233 152.762 59.4391 152.737 61.7554C152.737 62.2559 152.871 62.4025 153.375 62.3982C155.983 62.3723 158.591 62.3867 161.199 62.3795C162.157 62.3797 163.109 62.2288 164.02 61.9323C165.215 61.5411 166.245 60.94 166.675 59.6428C167.516 57.1118 166.2 54.9101 163.487 54.3636C161.636 53.9911 159.766 54.2558 158.229 54.1709Z" fill="#F2BA30"/>
<path d="M313.229 61.1687V61.938C313.229 69.5599 313.221 77.1933 313.245 84.8209C313.245 85.4781 313.075 85.6593 312.415 85.6464C310.114 85.6052 307.813 85.6052 305.512 85.6464C304.859 85.6579 304.678 85.4896 304.68 84.8238C304.702 73.6326 304.707 62.4419 304.696 51.2516C304.696 49.9127 304.71 48.5739 304.687 47.235C304.68 46.7921 304.773 46.6022 305.275 46.608C307.576 46.6339 309.877 46.6339 312.178 46.608C312.663 46.608 312.845 46.8956 313.074 47.1832L329.829 69.1472C330.163 69.5786 330.502 70.01 330.965 70.614V69.721C330.965 62.2846 330.975 54.8483 330.948 47.4119C330.948 46.7317 331.152 46.5922 331.786 46.6022C334.109 46.6382 336.433 46.6296 338.757 46.6022C339.251 46.6022 339.466 46.667 339.464 47.2494C339.445 59.8269 339.445 72.4045 339.464 84.982C339.464 85.5572 339.269 85.6407 338.764 85.6335C336.751 85.6076 334.737 85.6119 332.724 85.6335C332.537 85.6449 332.351 85.6064 332.184 85.522C332.017 85.4376 331.876 85.3103 331.775 85.1531C325.787 77.2964 319.791 69.4463 313.787 61.603C313.661 61.4361 313.523 61.2779 313.39 61.1169L313.229 61.1687Z" fill="#F2BA30"/>
<path d="M236.232 70.627V59.3725C236.232 55.3559 236.242 51.3407 236.221 47.3241C236.221 46.7777 236.339 46.5907 236.924 46.6051C239.295 46.6396 241.666 46.6396 244.037 46.6051C244.644 46.595 244.729 46.8151 244.727 47.3414C244.714 58.6736 244.71 70.0047 244.717 81.335C244.717 82.5545 244.696 83.7797 244.729 84.9935C244.742 85.4795 244.622 85.6521 244.102 85.6435C242.065 85.6133 240.029 85.6205 237.994 85.6435C237.807 85.6561 237.62 85.6189 237.452 85.5358C237.284 85.4527 237.141 85.3266 237.038 85.1703C233.665 80.7353 230.286 76.3055 226.901 71.881C224.245 68.4018 221.589 64.9244 218.932 61.4491C218.821 61.3053 218.75 61.1097 218.448 61.0478V61.8143C218.448 69.488 218.438 77.1616 218.463 84.8353C218.463 85.5126 218.262 85.6579 217.624 85.6478C215.301 85.6104 212.979 85.6205 210.655 85.6478C210.157 85.6478 209.946 85.5759 209.947 84.9978C209.964 72.4231 209.964 59.8485 209.947 47.2738C209.947 46.7058 210.141 46.6094 210.65 46.6152C212.806 46.6411 214.964 46.6411 217.122 46.6152C217.671 46.608 218.028 46.759 218.373 47.2149C224.085 54.7361 229.809 62.2486 235.546 69.7526C235.728 69.9812 235.917 70.2286 236.232 70.627Z" fill="#F2BA30"/>
<path d="M396.539 66.1214C396.539 59.8815 396.548 53.6416 396.525 47.4018C396.525 46.7877 396.653 46.5979 397.306 46.5993C406.623 46.6242 415.94 46.6242 425.256 46.5993C425.872 46.5993 426.004 46.7848 425.994 47.3629C425.96 49.395 425.954 51.427 425.994 53.459C426.007 54.0817 425.858 54.2571 425.212 54.2543C418.769 54.2284 412.327 54.2543 405.884 54.2226C405.189 54.2226 404.995 54.411 405.01 55.0999C405.054 57.2024 405.05 59.3063 405.01 61.4102C404.998 62.0271 405.205 62.158 405.783 62.1566C411.412 62.1365 417.041 62.1566 422.669 62.1292C423.332 62.1292 423.522 62.3061 423.509 62.9691C423.466 64.9997 423.472 67.0331 423.509 69.0637C423.519 69.6591 423.344 69.8302 422.744 69.8288C417.117 69.8072 411.488 69.8288 405.86 69.8029C405.231 69.8029 404.997 69.9208 405.008 70.6154C405.057 72.8143 405.05 75.0145 405.008 77.2134C404.998 77.8461 405.172 78.0158 405.809 78.0144C412.252 77.9899 418.696 78.0144 425.139 77.9813C425.843 77.9813 426.01 78.1654 425.994 78.8442C425.945 80.8992 425.964 82.9557 425.986 85.0107C425.986 85.4623 425.888 85.6262 425.397 85.6262C415.986 85.6118 406.573 85.6118 397.159 85.6262C396.552 85.6262 396.526 85.3688 396.528 84.9C396.541 78.6433 396.545 72.3838 396.539 66.1214Z" fill="#F2BA30"/>
<path d="M254.006 85.6248C254.361 84.7763 254.677 84.0112 255.001 83.2505C260.147 71.1916 265.29 59.1318 270.427 47.071C270.673 46.4958 270.959 46.3031 271.578 46.316C273.709 46.3592 275.842 46.3462 277.973 46.3232C278.465 46.3232 278.734 46.4368 278.942 46.9272C284.326 59.5824 289.72 72.2376 295.127 84.8928C295.439 85.6248 295.433 85.6305 294.658 85.6305C292.118 85.6305 289.578 85.6219 287.036 85.642C286.584 85.642 286.371 85.5083 286.2 85.0797C285.194 82.5501 284.138 80.0464 283.129 77.5125C282.945 77.0523 282.737 76.8639 282.208 76.8654C277.127 76.8903 272.048 76.8903 266.972 76.8654C266.494 76.8654 266.268 76.9948 266.086 77.455C265.079 79.9846 264.022 82.4883 263.01 85.0193C262.837 85.4508 262.656 85.6492 262.147 85.6435C259.478 85.6161 256.799 85.6248 254.006 85.6248ZM274.604 56.6516C272.829 60.9659 271.141 65.0903 269.435 69.2449H279.778C278.061 65.0673 276.371 60.9515 274.604 56.6516Z" fill="#F2BA30"/>
<path d="M370.47 45.9738C374.549 45.9738 378.116 46.6195 381.423 48.3912C382.995 49.2325 384.382 50.324 385.697 51.519C386.04 51.8297 386.129 52.0368 385.768 52.4337C384.175 54.2169 382.606 56.0222 381.063 57.8495C380.727 58.2464 380.553 58.153 380.228 57.8783C378.468 56.3841 376.591 55.0697 374.348 54.3866C367.511 52.3043 360.735 56.4661 359.586 63.5142C358.867 67.9277 359.767 71.9457 362.986 75.226C365.656 77.9483 368.994 78.6774 372.683 78.246C375.655 77.9008 378.004 76.3434 380.19 74.4695C380.969 73.8023 380.962 73.7893 381.671 74.5055C383.118 75.968 384.547 77.4406 386.015 78.8888C386.336 79.2066 386.378 79.3979 386.041 79.7516C382.21 83.7855 377.575 85.993 371.962 86.2446C367.058 86.4647 362.544 85.4278 358.543 82.5458C353.798 79.1232 351.183 74.4221 350.512 68.6453C349.912 63.4897 350.991 58.7023 353.982 54.4283C357.331 49.6409 361.978 46.9503 367.76 46.1464C368.784 46.0069 369.815 46.0529 370.47 45.9738Z" fill="#F2BA30"/>
<path d="M117.094 79.802C116.995 79.9113 116.89 80.0378 116.773 80.1543C109.487 87.4214 102.204 94.691 94.9243 101.963C94.5978 102.289 94.4339 102.251 94.1333 101.946C86.8557 94.6718 79.5693 87.4061 72.2744 80.1485C71.9177 79.7948 71.9868 79.6164 72.3017 79.3072C74.7877 76.8539 77.2622 74.388 79.7251 71.9097C80.1422 71.4883 80.3565 71.5545 80.7318 71.9342C85.1424 76.3563 89.5775 80.7554 93.9809 85.1847C94.4325 85.6392 94.6496 85.6162 95.0897 85.1847C99.4773 80.7727 103.895 76.3922 108.284 71.9831C108.716 71.5516 108.941 71.4912 109.406 71.9629C111.819 74.4221 114.275 76.8395 116.713 79.2756C116.862 79.4151 117.071 79.5259 117.094 79.802Z" fill="#F2BA30"/>
<path d="M117.147 51.3896C117.025 51.5334 116.933 51.6772 116.818 51.7894C114.295 54.3089 111.76 56.8155 109.255 59.3537C108.857 59.7593 108.68 59.5364 108.415 59.2675C103.995 54.8525 99.5776 50.4361 95.1617 46.0183C94.6756 45.5294 94.434 45.5236 93.945 46.0183C89.556 50.4289 85.1295 54.8022 80.7391 59.2114C80.3076 59.65 80.102 59.604 79.6964 59.1927C77.2594 56.724 74.8021 54.2739 72.3248 51.8426C71.9581 51.4816 71.9868 51.3076 72.3363 50.9596C79.5814 43.7548 86.8164 36.5384 94.0414 29.3106C94.4268 28.9238 94.6411 28.8792 95.048 29.2948C102.253 36.5063 109.468 43.7093 116.693 50.9035C116.847 51.0502 116.985 51.2127 117.147 51.3896Z" fill="#F2B92F"/>
<path d="M188.361 66.0898C188.361 59.8499 188.368 53.61 188.348 47.3702C188.348 46.7949 188.462 46.5907 189.083 46.6008C191.502 46.6382 193.922 46.6295 196.341 46.6008C196.85 46.6008 196.981 46.7518 196.981 47.2479C196.968 59.8235 196.968 72.3987 196.981 84.9733C196.981 85.458 196.873 85.6363 196.351 85.6306C193.909 85.6037 191.465 85.6037 189.017 85.6306C188.468 85.6378 188.344 85.4738 188.345 84.946C188.366 78.6625 188.371 72.3771 188.361 66.0898Z" fill="#F2BA30"/>
<path d="M94.539 73.9489C94.3822 73.8051 94.2514 73.7073 94.1363 73.5908C91.5794 71.0425 89.021 68.4947 86.4612 65.9474C86.188 65.677 86.1276 65.516 86.4339 65.2082C89.0225 62.6532 91.5957 60.0857 94.1536 57.5058C94.4901 57.1678 94.6598 57.2498 94.9474 57.5403C97.4765 60.0829 100.017 62.6153 102.569 65.1378C102.937 65.5002 102.897 65.6986 102.551 66.0408C100.014 68.5446 97.4986 71.0742 94.9747 73.5822C94.8453 73.7116 94.6943 73.8238 94.539 73.9489Z" fill="#F2BA30"/>
<path d="M131.299 65.4987C131.309 65.736 131.143 65.8223 131.03 65.9301C128.508 68.4497 125.986 70.9696 123.465 73.4901C123.158 73.7993 122.979 73.8036 122.668 73.4901C120.155 70.961 117.631 68.4429 115.096 65.9358C114.809 65.6482 114.793 65.4929 115.088 65.2024C117.643 62.6829 120.188 60.1523 122.723 57.6108C123.03 57.303 123.199 57.372 123.467 57.641C125.982 60.1662 128.504 62.6858 131.033 65.1996C131.134 65.3045 131.223 65.4139 131.299 65.4987Z" fill="#F2BA30"/>
</g>
<defs>
<clipPath id="clip0_2108_298">
<rect width="368" height="73.1901" fill="white" transform="translate(58 29)"/>
</clipPath>
</defs>
</svg>
