<svg width="484" height="132" viewBox="0 0 484 132" fill="none" xmlns="http://www.w3.org/2000/svg">
<rect width="484" height="132" fill="white"/>
<path d="M139.981 74.7343C135.193 94.0403 115.661 105.809 96.3545 101.021C77.0486 96.2347 65.2797 76.7018 70.0673 57.3959C74.8549 38.0891 94.387 26.3194 113.693 31.107C113.725 31.1151 113.759 31.1232 113.791 31.1322C133.046 35.9643 144.76 55.4656 139.981 74.7343Z" fill="#F7931A"/>
<path d="M113.211 60.8077C112.086 65.31 105.22 63.0021 102.992 62.4511L104.961 54.5728C107.156 55.1133 114.337 56.1481 113.177 60.8077H113.211ZM111.985 73.5384C110.769 78.4443 102.508 75.7896 99.8292 75.1243L102.001 66.4243C104.68 67.0993 113.256 68.4161 111.985 73.5384ZM120.988 60.8757C121.697 56.0808 118.051 53.5039 113.11 51.7932L114.731 45.299L110.736 44.3088L109.16 50.6344C108.125 50.3759 107.056 50.128 105.998 49.8913L107.573 43.4984L103.622 42.5082L102.002 49.0024L99.4807 48.44L94.0221 47.0778L92.9752 51.2989C92.9752 51.2989 95.9014 51.974 95.8454 52.0193C96.9629 52.1547 97.7782 53.1474 97.6914 54.2705L95.8454 61.665C95.984 61.6966 96.1202 61.7412 96.2506 61.8004L95.8341 61.6877L93.2564 72.0538C93.0149 72.8123 92.2045 73.2296 91.4452 72.9882H91.4444C91.4444 73.0441 88.5628 72.2791 88.5628 72.2791L86.6041 76.7814L91.7475 78.0537L94.561 78.7855L92.929 85.3469L96.8795 86.3372L98.5002 79.843C99.565 80.1355 100.613 80.4054 101.64 80.6533L100.042 87.1702L103.993 88.1491L105.625 81.599C112.378 82.8721 117.431 82.364 119.569 76.2644C121.292 71.3569 119.48 68.532 115.934 66.686C118.523 66.0896 120.437 64.4348 120.988 60.8782L120.988 60.8757Z" fill="white"/>
<path d="M162.785 90.776C164.889 90.7825 166.958 90.2469 168.796 89.2226C170.686 88.2145 172.349 86.8263 173.68 85.1481C175.068 83.3734 176.158 81.3856 176.911 79.2617C177.704 77.0672 178.107 74.752 178.103 72.419C178.23 70.0519 177.724 67.6938 176.64 65.5869C175.672 63.9548 173.871 63.1226 171.26 63.1226C170.122 63.1615 168.991 63.3162 167.883 63.5837C166.508 63.8908 165.236 64.5504 164.191 65.4969L158.226 90.4381L159.183 90.618C159.468 90.6877 159.758 90.7331 160.049 90.7533C160.423 90.7995 160.799 90.8182 161.175 90.8093L162.784 90.7752L162.785 90.776ZM174.637 51.7889C177.242 51.7289 179.829 52.2605 182.2 53.3423C184.258 54.3237 186.067 55.7588 187.49 57.5408C188.947 59.3836 190.018 61.4994 190.641 63.7644C191.324 66.2619 191.66 68.8404 191.643 71.4295C191.64 79.4845 188.517 87.2242 182.931 93.028C180.223 95.8059 177.001 98.0295 173.444 99.5781C169.714 101.22 165.679 102.057 161.604 102.032H158.722C157.156 101.981 155.592 101.846 154.04 101.627C152.144 101.352 150.266 100.977 148.413 100.501C146.469 100.04 144.583 99.3683 142.786 98.4979L158.599 32.2512L172.724 30L167.097 53.5117C168.269 52.9817 169.485 52.5563 170.732 52.2403C172.018 51.9275 173.338 51.7719 174.66 51.7792L174.637 51.7905L174.637 51.7889Z" fill="#4D4D4D"/>
<path d="M212.802 46.9652C210.961 46.9831 209.166 46.3931 207.692 45.2886C206.129 44.0528 205.285 42.1201 205.44 40.1339C205.434 38.8949 205.698 37.6688 206.217 36.5432C206.714 35.4468 207.411 34.4541 208.277 33.617C209.141 32.7953 210.143 32.1324 211.237 31.6584C212.375 31.1697 213.601 30.921 214.838 30.9266C216.666 30.921 218.444 31.5141 219.903 32.6146C221.462 33.8528 222.306 35.7839 222.154 37.7693C222.164 39.0116 221.903 40.2409 221.389 41.3705C220.892 42.4613 220.198 43.4491 219.341 44.2854C218.478 45.1103 217.477 45.7732 216.38 46.244C215.243 46.7327 214.016 46.9782 212.779 46.9644H212.802V46.9652ZM206.24 100.754H192.734L204.146 52.8063H217.731L206.239 100.754H206.24Z" fill="#4D4D4D"/>
<path d="M229.52 40.8588L243.645 38.6757L240.134 52.801H255.261L252.536 63.9208H237.533L233.527 80.6458C233.18 81.9261 232.965 83.2389 232.885 84.5638C232.802 85.6351 232.961 86.7113 233.346 87.7137C233.723 88.6132 234.421 89.3401 235.305 89.7509C236.577 90.3133 237.966 90.5694 239.357 90.494C240.781 90.4989 242.202 90.3587 243.6 90.0775C245.006 89.8028 246.39 89.4268 247.741 88.9519L248.754 99.3512C246.815 100.048 244.834 100.624 242.822 101.073C240.337 101.601 237.8 101.846 235.259 101.805C231.061 101.805 227.819 101.175 225.501 99.9363C223.332 98.8334 221.595 97.0344 220.572 94.8262C219.572 92.4835 219.136 89.9389 219.3 87.3977C219.452 84.4163 219.877 81.4553 220.572 78.551L229.52 40.8134V40.8588H229.52Z" fill="#4D4D4D"/>
<path d="M254.762 81.6073C254.734 77.6301 255.411 73.6772 256.765 69.9365C258.035 66.3993 259.986 63.1457 262.505 60.3589C265.045 57.5948 268.135 55.3947 271.576 53.8971C275.33 52.2764 279.384 51.4669 283.472 51.5236C285.941 51.4944 288.404 51.7545 290.811 52.2991C292.834 52.7788 294.803 53.4652 296.686 54.3477L291.993 64.8937C290.778 64.3986 289.517 63.9723 288.211 63.5769C286.655 63.1433 285.043 62.9423 283.428 62.9804C279.347 62.8329 275.421 64.5582 272.769 67.6627C270.135 70.7607 268.814 74.9251 268.807 80.156C268.683 82.8091 269.383 85.4346 270.81 87.6753C272.145 89.5885 274.608 90.5439 278.194 90.5439C279.912 90.5456 281.625 90.3608 283.304 89.9929C284.8 89.6736 286.267 89.2182 287.682 88.6307L288.684 99.4814C286.843 100.178 284.964 100.772 283.057 101.259C280.634 101.805 278.156 102.062 275.673 102.025C272.378 102.121 269.097 101.566 266.016 100.392C263.567 99.4052 261.362 97.8963 259.556 95.9701C257.842 94.103 256.576 91.8697 255.854 89.441C255.089 86.8852 254.71 84.2296 254.728 81.5627L254.762 81.6081V81.6073Z" fill="#4D4D4D"/>
<path d="M321.413 63.0131C319.509 62.9864 317.647 63.5917 316.123 64.7351C314.578 65.9312 313.281 67.4198 312.308 69.1135C311.237 70.9165 310.433 72.8662 309.922 74.9002C309.427 76.85 309.169 78.8515 309.157 80.8637C309.035 83.3199 309.535 85.7655 310.609 87.977C311.589 89.6763 313.344 90.532 315.899 90.532C317.807 90.5645 319.671 89.9543 321.189 88.7987C322.738 87.6026 324.037 86.114 325.016 84.4219C326.071 82.6165 326.855 80.6676 327.346 78.6352C327.836 76.6814 328.093 74.675 328.11 72.6588C328.237 70.2042 327.735 67.7561 326.658 65.5455C325.679 63.8575 323.912 63.0017 321.368 63.0017L321.414 63.0131H321.413ZM314.66 102.023C311.792 102.089 308.941 101.592 306.264 100.559C304.012 99.6713 302.001 98.2693 300.389 96.4622C298.804 94.6422 297.61 92.5166 296.878 90.216C296.082 87.6366 295.701 84.9462 295.752 82.2477C295.761 78.5314 296.357 74.8386 297.52 71.3079C298.649 67.7545 300.412 64.4345 302.719 61.505C305.036 58.5764 307.919 56.1421 311.193 54.3471C314.719 52.4517 318.671 51.4939 322.674 51.5668C325.525 51.5149 328.361 52.0125 331.025 53.0303C333.28 53.9039 335.302 55.2871 336.934 57.0707C338.509 58.8957 339.7 61.0204 340.434 63.317C341.236 65.8988 341.616 68.5932 341.56 71.2966C341.549 75.0096 340.968 78.7 339.838 82.2364C338.729 85.7947 336.998 89.1277 334.728 92.0847C332.444 95.0255 329.573 97.4598 326.298 99.232C322.718 101.137 318.714 102.098 314.66 102.023Z" fill="#4D4D4D"/>
<path d="M362.888 46.9655C361.05 46.9849 359.257 46.395 357.79 45.2888C356.227 44.053 355.382 42.1203 355.539 40.1341C355.532 38.8951 355.796 37.669 356.314 36.5434C356.797 35.4527 357.475 34.4616 358.317 33.6172C359.188 32.798 360.192 32.1351 361.289 31.6586C362.423 31.1708 363.645 30.922 364.88 30.9269C366.722 30.9106 368.52 31.5054 369.991 32.6148C371.55 33.8531 372.392 35.7841 372.242 37.7695C372.244 39.0134 371.975 40.2427 371.452 41.3707C370.965 42.4623 370.273 43.4517 369.416 44.2856C368.554 45.1105 367.552 45.7734 366.456 46.2442C365.328 46.728 364.114 46.9736 362.887 46.9646L362.888 46.9655ZM356.338 100.754H342.832L354.223 52.8065H367.819L356.338 100.754Z" fill="#4D4D4D"/>
<path d="M377.543 54.989C378.567 54.6965 379.704 54.3359 380.92 53.9429C382.135 53.549 383.553 53.1884 385.116 52.8173C386.832 52.4534 388.564 52.1795 390.306 51.9956C392.47 51.7671 394.646 51.6577 396.823 51.669C403.936 51.669 408.843 53.7354 411.545 57.8707C413.162 60.3471 413.981 63.3681 414 66.9345V67.1914C413.988 69.5107 413.642 72.0576 412.963 74.8315L406.761 100.718H393.21L399.231 75.3704C399.591 73.7958 399.884 72.2651 400.098 70.7683C400.333 69.4726 400.333 68.146 400.098 66.8519C399.875 65.77 399.277 64.8025 398.41 64.1169C397.209 63.3292 395.78 62.9613 394.347 63.0699C392.543 63.0732 390.744 63.2579 388.979 63.6218L380.132 100.763H366.501L377.543 54.989Z" fill="#4D4D4D"/>
</svg>
