<svg width="484" height="132" viewBox="0 0 484 132" fill="none" xmlns="http://www.w3.org/2000/svg">
<rect width="484" height="132" fill="white"/>
<g clip-path="url(#clip0_2108_292)">
<path d="M164.5 72.6117C164.494 72.9235 164.366 73.2206 164.142 73.4379C163.919 73.6553 163.618 73.7754 163.306 73.7718H141.329C141.893 79.2081 145.97 84.1804 151.738 84.1804C155.682 84.1804 158.599 82.6887 160.787 79.5396C160.889 79.3742 161.03 79.2363 161.197 79.138C161.365 79.0398 161.554 78.9842 161.748 78.9761C161.893 78.972 162.037 78.9975 162.172 79.051C162.306 79.1045 162.429 79.1849 162.531 79.2873C162.633 79.3897 162.714 79.512 162.767 79.6465C162.821 79.7811 162.846 79.9252 162.842 80.07C162.843 80.2699 162.785 80.4658 162.676 80.6335C160.456 84.4787 156.047 86.3681 151.738 86.3681C144.346 86.3681 139.042 79.7385 139.042 72.6779C139.042 65.6174 144.312 58.9878 151.738 58.9878C159.163 58.9878 164.466 65.5511 164.5 72.6117ZM162.146 71.5841C161.682 66.1478 157.505 61.1755 151.738 61.1755C145.97 61.1755 141.893 66.1478 141.329 71.5841H162.146Z" fill="#3B3B3B"/>
<path d="M191.217 59.5181C191.505 59.5265 191.778 59.6444 191.981 59.8478C192.185 60.0511 192.303 60.3245 192.311 60.612C192.315 60.7568 192.29 60.9009 192.236 61.0355C192.183 61.17 192.102 61.2923 192 61.3947C191.897 61.4971 191.775 61.5775 191.64 61.631C191.506 61.6846 191.362 61.71 191.217 61.7059H185.317V84.8765C185.314 85.1658 185.198 85.4425 184.993 85.6471C184.789 85.8517 184.512 85.9678 184.223 85.9704C183.935 85.962 183.662 85.8441 183.459 85.6407C183.255 85.4374 183.137 85.1639 183.129 84.8765V61.7059H177.461C177.316 61.71 177.172 61.6846 177.037 61.631C176.903 61.5775 176.78 61.4971 176.678 61.3947C176.575 61.2923 176.495 61.17 176.442 61.0355C176.388 60.9009 176.363 60.7568 176.367 60.612C176.369 60.3227 176.485 60.046 176.69 59.8414C176.895 59.6368 177.171 59.5207 177.461 59.5181H183.129V51.0654C183.129 50.7853 183.23 50.5146 183.412 50.3019C183.594 50.0892 183.847 49.9486 184.123 49.9052C184.278 49.8846 184.435 49.8977 184.584 49.9436C184.734 49.9894 184.871 50.0669 184.988 50.1707C185.104 50.2746 185.197 50.4024 185.259 50.5453C185.322 50.6883 185.353 50.8431 185.35 50.9991V59.5181H191.217Z" fill="#3B3B3B"/>
<path d="M227.183 70.7222V84.7439C227.174 85.0314 227.057 85.3048 226.853 85.5081C226.65 85.7115 226.376 85.8294 226.089 85.8378C225.944 85.8419 225.8 85.8164 225.665 85.7629C225.531 85.7094 225.409 85.629 225.306 85.5266C225.204 85.4241 225.123 85.3019 225.07 85.1673C225.016 85.0327 224.991 84.8887 224.995 84.7439V70.7222C224.995 65.982 222.31 61.275 217.039 61.275C210.277 61.275 207.36 67.1754 207.758 73.2415C207.758 73.4072 207.824 74.1033 207.824 74.2028V84.7107C207.824 84.9908 207.723 85.2615 207.541 85.4742C207.359 85.6869 207.107 85.8275 206.83 85.8709C206.675 85.8915 206.518 85.8784 206.369 85.8325C206.22 85.7867 206.082 85.7092 205.966 85.6054C205.849 85.5015 205.757 85.3737 205.694 85.2308C205.631 85.0878 205.601 84.933 205.603 84.777V38.668C205.606 38.3786 205.722 38.1019 205.927 37.8973C206.131 37.6927 206.408 37.5767 206.697 37.5741C206.985 37.5824 207.258 37.7003 207.461 37.9037C207.665 38.1071 207.783 38.3805 207.791 38.668V64.7224C209.681 61.3413 213.062 59.0541 217.006 59.0541C223.503 59.0541 227.183 64.7224 227.183 70.7222Z" fill="#3B3B3B"/>
<path d="M266.662 72.6117C266.657 72.9235 266.529 73.2206 266.305 73.4379C266.081 73.6553 265.781 73.7754 265.469 73.7718H243.492C244.055 79.2081 248.132 84.1804 253.9 84.1804C257.845 84.1804 260.762 82.6887 262.95 79.5396C263.051 79.3742 263.192 79.2363 263.36 79.138C263.528 79.0398 263.717 78.9842 263.911 78.9761C264.056 78.972 264.2 78.9975 264.334 79.051C264.469 79.1045 264.591 79.1849 264.694 79.2873C264.796 79.3897 264.876 79.512 264.93 79.6465C264.983 79.7811 265.009 79.9252 265.005 80.07C265.006 80.2699 264.948 80.4658 264.839 80.6335C262.618 84.4787 258.209 86.3681 253.9 86.3681C246.508 86.3681 241.204 79.7385 241.204 72.6779C241.204 65.6174 246.475 58.9878 253.9 58.9878C261.259 58.9878 266.629 65.5511 266.662 72.6117ZM264.276 71.5841C263.811 66.1478 259.635 61.1755 253.867 61.1755C248.099 61.1755 244.022 66.1478 243.459 71.5841H264.276Z" fill="#3B3B3B"/>
<path d="M293.678 60.5457C293.699 60.84 293.603 61.1307 293.41 61.3543C293.218 61.5778 292.945 61.7162 292.65 61.7391C286.186 62.7004 283.269 67.9709 283.269 74.1033V84.6113C283.269 84.8914 283.168 85.1621 282.986 85.3748C282.804 85.5874 282.552 85.7281 282.275 85.7715C282.12 85.792 281.963 85.7789 281.814 85.7331C281.665 85.6873 281.527 85.6098 281.411 85.5059C281.294 85.4021 281.202 85.2743 281.139 85.1313C281.077 84.9884 281.046 84.8336 281.049 84.6776V60.7115C281.049 60.4314 281.15 60.1607 281.332 59.948C281.514 59.7354 281.766 59.5947 282.043 59.5513C282.198 59.5307 282.355 59.5438 282.504 59.5897C282.653 59.6355 282.791 59.713 282.907 59.8169C283.024 59.9207 283.116 60.0485 283.179 60.1914C283.241 60.3344 283.272 60.4892 283.269 60.6452V65.518C285.093 62.4352 288.706 59.5181 292.485 59.5181C293.048 59.5181 293.678 59.9159 293.678 60.5457Z" fill="#3B3B3B"/>
<path d="M329.809 72.6117C329.804 72.9235 329.676 73.2206 329.452 73.4379C329.229 73.6553 328.928 73.7754 328.616 73.7718H306.639C307.202 79.2081 311.28 84.1804 317.047 84.1804C320.992 84.1804 323.909 82.6887 326.097 79.5396C326.199 79.3742 326.34 79.2363 326.507 79.138C326.675 79.0398 326.864 78.9842 327.058 78.9761C327.203 78.972 327.347 78.9975 327.482 79.051C327.616 79.1045 327.738 79.1849 327.841 79.2873C327.943 79.3897 328.024 79.512 328.077 79.6465C328.131 79.7811 328.156 79.9252 328.152 80.07C328.153 80.2699 328.095 80.4658 327.986 80.6335C325.765 84.4787 321.357 86.3681 317.047 86.3681C309.655 86.3681 304.352 79.7385 304.352 72.6779C304.352 65.6174 309.622 58.9878 317.047 58.9878C324.473 58.9878 329.776 65.5511 329.809 72.6117ZM327.456 71.5841C326.992 66.1478 322.815 61.1755 317.047 61.1755C311.28 61.1755 307.202 66.1478 306.639 71.5841H327.456Z" fill="#3B3B3B"/>
<path d="M365.344 60.8109V84.8765C365.336 85.1639 365.218 85.4374 365.015 85.6407C364.811 85.8441 364.538 85.962 364.25 85.9704C364.106 85.9745 363.962 85.949 363.827 85.8955C363.692 85.842 363.57 85.7615 363.468 85.6591C363.365 85.5567 363.285 85.4345 363.231 85.2999C363.178 85.1653 363.152 85.0212 363.156 84.8765V80.302C361.333 83.9152 358.118 86.5339 354.008 86.5339C347.477 86.5339 343.864 80.8655 343.864 74.8657V60.7778C343.867 60.4885 343.983 60.2117 344.188 60.0071C344.392 59.8026 344.669 59.6865 344.958 59.6839C345.246 59.6922 345.519 59.8101 345.722 60.0135C345.926 60.2169 346.044 60.4903 346.052 60.7778V74.8657C346.052 79.6059 348.737 84.313 354.008 84.313C361.4 84.313 363.156 77.385 363.156 69.7278V60.7446C363.159 60.5673 363.204 60.3931 363.287 60.2367C363.371 60.0802 363.491 59.9461 363.637 59.8455C363.783 59.7449 363.951 59.6807 364.127 59.6584C364.303 59.636 364.482 59.6561 364.648 59.717C364.857 59.8139 365.033 59.9683 365.156 60.1622C365.279 60.356 365.345 60.5811 365.344 60.8109Z" fill="#3B3B3B"/>
<path d="M421 70.6228V84.7107C420.992 84.9982 420.874 85.2716 420.67 85.475C420.467 85.6784 420.194 85.7963 419.906 85.8046C419.761 85.8087 419.617 85.7833 419.483 85.7297C419.348 85.6762 419.226 85.5958 419.123 85.4934C419.021 85.391 418.941 85.2687 418.887 85.1342C418.834 84.9996 418.808 84.8555 418.812 84.7107V70.6228C418.812 65.8826 416.127 61.2418 410.857 61.2418C404.227 61.2418 401.708 68.3355 401.708 73.8381V84.7107C401.699 84.9982 401.581 85.2716 401.378 85.475C401.175 85.6784 400.901 85.7963 400.614 85.8046C400.469 85.8087 400.325 85.7833 400.19 85.7297C400.056 85.6762 399.934 85.5958 399.831 85.4934C399.729 85.391 399.648 85.2687 399.595 85.1342C399.541 84.9996 399.516 84.8555 399.52 84.7107V70.6228C399.52 65.8826 396.835 61.2418 391.564 61.2418C384.869 61.2418 382.117 66.5124 382.349 73.5398C382.349 73.7055 382.416 74.0039 382.349 74.1033V84.6776C382.349 84.9577 382.248 85.2284 382.066 85.441C381.884 85.6537 381.632 85.7944 381.355 85.8378C381.2 85.8583 381.043 85.8452 380.894 85.7994C380.745 85.7535 380.607 85.6761 380.491 85.5722C380.374 85.4683 380.282 85.3406 380.219 85.1976C380.156 85.0547 380.126 84.8999 380.128 84.7439V60.7115C380.129 60.4314 380.229 60.1607 380.412 59.948C380.594 59.7353 380.846 59.5947 381.123 59.5513C381.277 59.5307 381.435 59.5438 381.584 59.5897C381.733 59.6355 381.871 59.713 381.987 59.8168C382.103 59.9207 382.196 60.0485 382.259 60.1914C382.321 60.3344 382.352 60.4892 382.349 60.6452V64.6561C384.239 61.275 387.62 59.0541 391.564 59.0541C396.039 59.0541 399.52 61.9048 400.945 66.0483C402.768 61.9379 406.315 59.0541 410.857 59.0541C417.321 59.0541 421 64.6561 421 70.6228Z" fill="#3B3B3B"/>
<path opacity="0.6" d="M90.513 54.1813L63 66.6781L90.513 82.9539L118.059 66.6781L90.513 54.1813Z" fill="black"/>
<path opacity="0.45" d="M63 66.6782L90.513 82.9539V21L63 66.6782Z" fill="black"/>
<path opacity="0.8" d="M90.513 21V82.9539L118.059 66.6782L90.513 21Z" fill="black"/>
<path opacity="0.45" d="M63 71.9155L90.513 110.699V88.1581L63 71.9155Z" fill="black"/>
<path opacity="0.8" d="M90.513 88.1581V110.699L118.059 71.9155L90.513 88.1581Z" fill="black"/>
</g>
<defs>
<clipPath id="clip0_2108_292">
<rect width="358" height="89.6989" fill="white" transform="translate(63 21)"/>
</clipPath>
</defs>
</svg>
